<svg xmlns="http://www.w3.org/2000/svg" width="1000" height="610" viewBox="0 0 1000 610" role="img" aria-labelledby="title desc">
  <title id="title">Silesia compression ratio versus compression throughput</title>
  <desc id="desc">Scatter plot with compression throughput on a logarithmic horizontal axis and ratio vertically. Better results move toward the upper right.</desc>
  <style>
    :root { --bg:#ffffff; --fg:#172033; --muted:#667085; --grid:#d9dee8;
      --axiom:#e26d2f; --zstd:#238b74; --lz4:#3973c6; --lzma2:#a54d9d; --winrar:#c43b4d; --other:#7b8798; }
    @media (prefers-color-scheme: dark) { :root { --bg:#0d1117; --fg:#e6edf3;
      --muted:#9ba7b4; --grid:#30363d; --axiom:#ff934f; --zstd:#4fc3a1;
      --lz4:#73a7ef; --lzma2:#d88ad0; --winrar:#ff667a; --other:#a6b0bd; } }
    .bg{fill:var(--bg)} .fg{fill:var(--fg)} .muted{fill:var(--muted)}
    .grid{stroke:var(--grid);stroke-width:1} .axis{stroke:var(--muted);stroke-width:1.2}
    text{font-family:-apple-system,BlinkMacSystemFont,'Segoe UI',sans-serif;font-size:13px}
    .title{font-size:20px;font-weight:500} .subtitle{font-size:12px}
    .value{font-weight:500} .axiom{fill:var(--axiom)} .zstd{fill:var(--zstd)}
    .lz4{fill:var(--lz4)} .lzma2{fill:var(--lzma2)} .winrar{fill:var(--winrar)} .other{fill:var(--other)}
    .best{stroke:var(--fg);stroke-width:2}
  </style>
  <rect class="bg" width="1000" height="610"/>
  <text class="title fg" x="24" y="32">Ratio versus compression throughput</text>
  <text class="subtitle muted" x="24" y="54">211.9 MB Silesia tar · better results move toward the upper right</text>
  <line class="grid" x1="82.0" y1="76" x2="82.0" y2="540"/>
  <text class="muted" x="82.0" y="564" text-anchor="middle">2</text>
  <line class="grid" x1="188.6" y1="76" x2="188.6" y2="540"/>
  <text class="muted" x="188.6" y="564" text-anchor="middle">5</text>
  <line class="grid" x1="269.2" y1="76" x2="269.2" y2="540"/>
  <text class="muted" x="269.2" y="564" text-anchor="middle">10</text>
  <line class="grid" x1="349.8" y1="76" x2="349.8" y2="540"/>
  <text class="muted" x="349.8" y="564" text-anchor="middle">20</text>
  <line class="grid" x1="456.4" y1="76" x2="456.4" y2="540"/>
  <text class="muted" x="456.4" y="564" text-anchor="middle">50</text>
  <line class="grid" x1="537.0" y1="76" x2="537.0" y2="540"/>
  <text class="muted" x="537.0" y="564" text-anchor="middle">100</text>
  <line class="grid" x1="617.6" y1="76" x2="617.6" y2="540"/>
  <text class="muted" x="617.6" y="564" text-anchor="middle">200</text>
  <line class="grid" x1="724.2" y1="76" x2="724.2" y2="540"/>
  <text class="muted" x="724.2" y="564" text-anchor="middle">500</text>
  <line class="grid" x1="804.8" y1="76" x2="804.8" y2="540"/>
  <text class="muted" x="804.8" y="564" text-anchor="middle">1000</text>
  <line class="grid" x1="885.4" y1="76" x2="885.4" y2="540"/>
  <text class="muted" x="885.4" y="564" text-anchor="middle">2000</text>
  <line class="grid" x1="966.0" y1="76" x2="966.0" y2="540"/>
  <text class="muted" x="966.0" y="564" text-anchor="middle">4000</text>
  <line class="grid" x1="82" y1="540.0" x2="966" y2="540.0"/>
  <text class="muted" x="70" y="544.0" text-anchor="end">2.0×</text>
  <line class="grid" x1="82" y1="447.2" x2="966" y2="447.2"/>
  <text class="muted" x="70" y="451.2" text-anchor="end">2.5×</text>
  <line class="grid" x1="82" y1="354.4" x2="966" y2="354.4"/>
  <text class="muted" x="70" y="358.4" text-anchor="end">3.0×</text>
  <line class="grid" x1="82" y1="261.6" x2="966" y2="261.6"/>
  <text class="muted" x="70" y="265.6" text-anchor="end">3.5×</text>
  <line class="grid" x1="82" y1="168.8" x2="966" y2="168.8"/>
  <text class="muted" x="70" y="172.8" text-anchor="end">4.0×</text>
  <line class="grid" x1="82" y1="76.0" x2="966" y2="76.0"/>
  <text class="muted" x="70" y="80.0" text-anchor="end">4.5×</text>
  <line class="axis" x1="82" y1="540" x2="966" y2="540"/>
  <line class="axis" x1="82" y1="76" x2="82" y2="540"/>
  <text class="fg" x="524.0" y="592" text-anchor="middle">Compression throughput (MB/s, log scale)</text>
  <text class="fg" transform="translate(20 308.0) rotate(-90)" text-anchor="middle">Compression ratio</text>
  <path class="lz4" d="M904.4,516.4399999999999 L909.4,521.4 L904.4,526.4399999999999 L899.4,521.4 Z"><title>LZ4 -1: 2.10×, 2355.0 MB/s (0.09 s)</title></path>
  <path class="lz4" d="M736.9,401.368 L741.9,406.4 L736.9,411.368 L731.9,406.4 Z"><title>LZ4 -9 (HC): 2.72×, 557.8 MB/s (0.38 s)</title></path>
  <rect class="zstd" x="946.5439185902142" y="369.816" width="10" height="10"><title>zstd -1: 2.89×, 3532.5 MB/s (0.06 s)</title></rect>
  <rect class="zstd" x="865.9295295914759" y="312.28" width="10" height="10"><title>zstd -3: 3.20×, 1766.2 MB/s (0.12 s)</title></rect>
  <circle class="axiom" cx="657.8" cy="311.7" r="5"><title>Axiom -1: 3.23×, 282.6 MB/s (0.75 s)</title></circle>
  <circle class="other" cx="102.0" cy="302.4" r="5"><title>gzip Deflate -9: 3.28×, 2.4 MB/s (89.26 s)</title></circle>
  <circle class="axiom" cx="578.7" cy="248.6" r="5"><title>Axiom -2: 3.57×, 143.2 MB/s (1.48 s)</title></circle>
  <rect class="zstd" x="693.1762834925132" y="241.752" width="10" height="10"><title>zstd -9: 3.58×, 399.9 MB/s (0.53 s)</title></rect>
  <circle class="axiom" cx="564.7" cy="241.2" r="5"><title>Axiom -3: 3.61×, 126.9 MB/s (1.67 s)</title></circle>
  <circle class="axiom" cx="533.2" cy="226.3" r="5"><title>Axiom -4: 3.69×, 96.8 MB/s (2.19 s)</title></circle>
  <circle class="axiom" cx="511.4" cy="222.6" r="5"><title>Axiom -5: 3.71×, 80.3 MB/s (2.64 s)</title></circle>
  <circle class="axiom" cx="481.3" cy="218.9" r="5"><title>Axiom -6: 3.73×, 62.0 MB/s (3.42 s)</title></circle>
  <circle class="axiom" cx="432.6" cy="202.2" r="5"><title>Axiom -7: 3.82×, 40.8 MB/s (5.20 s)</title></circle>
  <rect class="winrar" x="528.7016581990326" y="180.50399999999996" width="10" height="10"><title>WinRAR -m3: 3.91×, 97.2 MB/s (2.18 s)</title></rect>
  <circle class="other" cx="391.7" cy="185.5" r="5"><title>bzip2 -9: 3.91×, 28.7 MB/s (7.39 s)</title></circle>
  <rect class="winrar" x="471.3367863422355" y="165.65599999999995" width="10" height="10"><title>WinRAR -m5 128M: 3.99×, 59.4 MB/s (3.57 s)</title></rect>
  <circle class="axiom" cx="308.0" cy="168.8" r="5"><title>Axiom -8: 4.00×, 14.0 MB/s (15.18 s)</title></circle>
  <rect class="zstd" x="292.3196812747256" y="161.94400000000005" width="10" height="10"><title>zstd -19: 4.01×, 12.7 MB/s (16.64 s)</title></rect>
  <circle class="axiom best" cx="272.7" cy="163.2" r="7"><title>Axiom -9: 4.03×, 10.3 MB/s (20.56 s)</title></circle>
  <rect class="zstd" x="89.84853163487384" y="154.52000000000004" width="10" height="10"><title>zstd -22 --ultra: 4.05×, 2.2 MB/s (94.89 s)</title></rect>
  <path class="lzma2" d="M289.8,112.68800000000007 L295.8,123.68800000000007 L283.8,123.68800000000007 Z"><title>LZMA2 -mx5: 4.27×, 11.9 MB/s (17.75 s)</title></path>
  <path class="lzma2" d="M194.5,97.84000000000006 L200.5,108.84000000000006 L188.5,108.84000000000006 Z"><title>LZMA2 -mx9: 4.35×, 5.3 MB/s (40.27 s)</title></path>
  <text class="fg" x="282.7" y="151.2" text-anchor="start" font-weight="500">Axiom -9</text>
  <text class="fg" x="307.3" y="184.9" text-anchor="start">zstd -19</text>
  <text class="fg" x="104.8" y="147.5" text-anchor="start">zstd -22 --ultra</text>
  <text class="fg" x="184.5" y="122.8" text-anchor="end">LZMA2 -mx9</text>
  <text class="fg" x="299.8" y="108.7" text-anchor="start">LZMA2 -mx5</text>
  <text class="fg" x="486.3" y="188.7" text-anchor="start">WinRAR -m5 128M</text>
  <text class="fg" x="667.8" y="301.7" text-anchor="start">Axiom -1</text>
  <text class="fg" x="941.5" y="392.8" text-anchor="end">zstd -1</text>
  <circle class="axiom" cx="496.5" cy="49" r="4.5"/>
  <text class="muted" x="506" y="53">Axiom</text>
  <rect class="zstd" x="568" y="45" width="9" height="9"/>
  <text class="muted" x="582" y="53">zstd</text>
  <path class="lz4" d="M648.5,44 L653,49 L648.5,54 L644,49 Z"/>
  <text class="muted" x="658" y="53">LZ4</text>
  <path class="lzma2" d="M724.5,44 L729,54 L720,54 Z"/>
  <text class="muted" x="734" y="53">LZMA2</text>
  <rect class="winrar" x="796" y="45" width="9" height="9"/>
  <text class="muted" x="810" y="53">WinRAR</text>
  <circle class="other" cx="876.5" cy="49" r="4.5"/>
  <text class="muted" x="886" y="53">gzip/bzip2</text>
</svg>
