<svg xmlns="http://www.w3.org/2000/svg" width="1000" height="610" viewBox="0 0 1000 610" role="img" aria-labelledby="title desc">
  <title id="title">Silesia compression ratio versus compression throughput</title>
  <desc id="desc">Scatter plot with logarithmic compression throughput horizontally and ratio vertically. Better results move toward the upper right.</desc>
  <style>
    :root{--bg:#fff;--fg:#172033;--muted:#667085;--grid:#d9dee8;--axiom:#e26d2f;--zstd:#238b74;--lz4:#3973c6;--lzma2:#a54d9d;--winrar:#c43b4d;--other:#7b8798}
    @media(prefers-color-scheme:dark){:root{--bg:#0d1117;--fg:#e6edf3;--muted:#9ba7b4;--grid:#30363d;--axiom:#ff934f;--zstd:#4fc3a1;--lz4:#73a7ef;--lzma2:#d88ad0;--winrar:#ff667a;--other:#a6b0bd}}
    .bg{fill:var(--bg)}.fg{fill:var(--fg)}.muted{fill:var(--muted)}.grid{stroke:var(--grid);stroke-width:1}.axis{stroke:var(--muted);stroke-width:1.2}
    text{font-family:-apple-system,BlinkMacSystemFont,'Segoe UI',sans-serif;font-size:13px}.title{font-size:20px;font-weight:500}.subtitle{font-size:12px}.value{font-weight:500}
    .axiom{fill:var(--axiom)}.zstd{fill:var(--zstd)}.lz4{fill:var(--lz4)}.lzma2{fill:var(--lzma2)}.winrar{fill:var(--winrar)}.other{fill:var(--other)}.best{stroke:var(--fg);stroke-width:2}
  </style>
  <rect class="bg" width="1000" height="610"/>
  <text class="title fg" x="24" y="32">Ratio versus compression throughput</text>
  <text class="subtitle muted" x="24" y="54">211.9 MB mixed-data tar &#183; better results move toward the upper right</text>
  <line class="grid" x1="82.0" y1="76" x2="82.0" y2="540"/>
  <text class="muted" x="82.0" y="564" text-anchor="middle">1</text>
  <line class="grid" x1="155.9" y1="76" x2="155.9" y2="540"/>
  <text class="muted" x="155.9" y="564" text-anchor="middle">2</text>
  <line class="grid" x1="253.5" y1="76" x2="253.5" y2="540"/>
  <text class="muted" x="253.5" y="564" text-anchor="middle">5</text>
  <line class="grid" x1="327.4" y1="76" x2="327.4" y2="540"/>
  <text class="muted" x="327.4" y="564" text-anchor="middle">10</text>
  <line class="grid" x1="401.3" y1="76" x2="401.3" y2="540"/>
  <text class="muted" x="401.3" y="564" text-anchor="middle">20</text>
  <line class="grid" x1="499.0" y1="76" x2="499.0" y2="540"/>
  <text class="muted" x="499.0" y="564" text-anchor="middle">50</text>
  <line class="grid" x1="572.8" y1="76" x2="572.8" y2="540"/>
  <text class="muted" x="572.8" y="564" text-anchor="middle">100</text>
  <line class="grid" x1="646.7" y1="76" x2="646.7" y2="540"/>
  <text class="muted" x="646.7" y="564" text-anchor="middle">200</text>
  <line class="grid" x1="744.4" y1="76" x2="744.4" y2="540"/>
  <text class="muted" x="744.4" y="564" text-anchor="middle">500</text>
  <line class="grid" x1="818.2" y1="76" x2="818.2" y2="540"/>
  <text class="muted" x="818.2" y="564" text-anchor="middle">1000</text>
  <line class="grid" x1="892.1" y1="76" x2="892.1" y2="540"/>
  <text class="muted" x="892.1" y="564" text-anchor="middle">2000</text>
  <line class="grid" x1="966.0" y1="76" x2="966.0" y2="540"/>
  <text class="muted" x="966.0" y="564" text-anchor="middle">4000</text>
  <line class="grid" x1="82" y1="540.0" x2="966" y2="540.0"/>
  <text class="muted" x="70" y="544.0" text-anchor="end">1.5&#215;</text>
  <line class="grid" x1="82" y1="462.7" x2="966" y2="462.7"/>
  <text class="muted" x="70" y="466.7" text-anchor="end">2.0&#215;</text>
  <line class="grid" x1="82" y1="385.3" x2="966" y2="385.3"/>
  <text class="muted" x="70" y="389.3" text-anchor="end">2.5&#215;</text>
  <line class="grid" x1="82" y1="308.0" x2="966" y2="308.0"/>
  <text class="muted" x="70" y="312.0" text-anchor="end">3.0&#215;</text>
  <line class="grid" x1="82" y1="230.7" x2="966" y2="230.7"/>
  <text class="muted" x="70" y="234.7" text-anchor="end">3.5&#215;</text>
  <line class="grid" x1="82" y1="153.3" x2="966" y2="153.3"/>
  <text class="muted" x="70" y="157.3" text-anchor="end">4.0&#215;</text>
  <line class="grid" x1="82" y1="76.0" x2="966" y2="76.0"/>
  <text class="muted" x="70" y="80.0" text-anchor="end">4.5&#215;</text>
  <line class="axis" x1="82" y1="540" x2="966" y2="540"/>
  <line class="axis" x1="82" y1="76" x2="82" y2="540"/>
  <text class="fg" x="524.0" y="592" text-anchor="middle">Compression throughput (MB/s, log scale)</text>
  <text class="fg" transform="translate(20 308.0) rotate(-90)" text-anchor="middle">Compression ratio</text>
  <circle class="axiom" cx="688.0" cy="266.9" r="5"><title>Axiom -1: 3.27x, 294.5 MB/s (0.72 s)</title></circle>
  <circle class="axiom" cx="605.1" cy="217.3" r="5"><title>Axiom -2: 3.59x, 135.4 MB/s (1.57 s)</title></circle>
  <circle class="axiom" cx="595.6" cy="210.9" r="5"><title>Axiom -3: 3.63x, 123.8 MB/s (1.71 s)</title></circle>
  <circle class="axiom" cx="565.2" cy="195.3" r="5"><title>Axiom -4: 3.73x, 93.0 MB/s (2.28 s)</title></circle>
  <circle class="axiom" cx="538.3" cy="191.7" r="5"><title>Axiom -5: 3.75x, 72.3 MB/s (2.93 s)</title></circle>
  <circle class="axiom" cx="508.9" cy="189.1" r="5"><title>Axiom -6: 3.77x, 54.9 MB/s (3.86 s)</title></circle>
  <circle class="axiom" cx="483.5" cy="174.7" r="5"><title>Axiom -7: 3.86x, 43.3 MB/s (4.90 s)</title></circle>
  <circle class="axiom" cx="382.2" cy="146.5" r="5"><title>Axiom -8: 4.04x, 16.7 MB/s (12.68 s)</title></circle>
  <circle class="axiom best" cx="387.4" cy="134.1" r="7"><title>Axiom -9: 4.12x, 17.6 MB/s (12.08 s)</title></circle>
  <path class="lz4" d="M909.4,442.2 L914.4,447.2 L909.4,452.2 L904.4,447.2 Z"><title>LZ4 -1: 2.10x, 2352.4 MB/s (0.09 s)</title></path>
  <path class="lz4" d="M757.8,346.7 L762.8,351.7 L757.8,356.7 L752.8,351.7 Z"><title>LZ4 -9 (HC): 2.72x, 566.9 MB/s (0.37 s)</title></path>
  <rect class="zstd" x="935.4" y="319.7" width="10" height="10"><title>zstd -1: 2.89x, 3145.9 MB/s (0.07 s)</title></rect>
  <rect class="zstd" x="876.4" y="272.0" width="10" height="10"><title>zstd -3: 3.20x, 1809.2 MB/s (0.12 s)</title></rect>
  <rect class="zstd" x="718.1" y="213.1" width="10" height="10"><title>zstd -9: 3.58x, 409.6 MB/s (0.52 s)</title></rect>
  <rect class="zstd" x="344.7" y="146.7" width="10" height="10"><title>zstd -19: 4.01x, 12.3 MB/s (17.20 s)</title></rect>
  <rect class="zstd" x="175.0" y="140.1" width="10" height="10"><title>zstd -22 --ultra: 4.05x, 2.5 MB/s (84.47 s)</title></rect>
  <path class="lzma2" d="M344.8,105.2 L350.8,116.2 L338.8,116.2 Z"><title>LZMA2 -mx5: 4.27x, 11.8 MB/s (18.00 s)</title></path>
  <path class="lzma2" d="M273.5,92.7 L279.5,103.7 L267.5,103.7 Z"><title>LZMA2 -mx9: 4.35x, 6.0 MB/s (35.14 s)</title></path>
  <circle class="other" cx="445.1" cy="167.4" r="5"><title>bzip2 -9: 3.91x, 30.2 MB/s (7.03 s)</title></circle>
  <circle class="other" cx="173.4" cy="265.4" r="5"><title>gzip Deflate -9: 3.28x, 2.4 MB/s (89.87 s)</title></circle>
  <rect class="winrar" x="576.7" y="162.6" width="10" height="10"><title>WinRAR -m3: 3.91x, 108.7 MB/s (1.95 s)</title></rect>
  <rect class="winrar" x="522.3" y="150.3" width="10" height="10"><title>WinRAR -m5 128M: 3.99x, 65.2 MB/s (3.25 s)</title></rect>
  <text class="fg" x="397.4" y="122.1" text-anchor="start" font-weight="500">Axiom -9</text>
  <text class="fg" x="359.7" y="169.7" text-anchor="start">zstd -19</text>
  <text class="fg" x="170.0" y="133.1" text-anchor="end">zstd -22 --ultra</text>
  <text class="fg" x="283.5" y="80.7" text-anchor="start">LZMA2 -mx9</text>
  <text class="fg" x="334.8" y="129.2" text-anchor="end">LZMA2 -mx5</text>
  <text class="fg" x="517.3" y="143.3" text-anchor="end">WinRAR -m5 128M</text>
  <text class="fg" x="698.0" y="256.9" text-anchor="start">Axiom -1</text>
  <text class="fg" x="930.4" y="342.7" text-anchor="end">zstd -1</text>
  <circle class="axiom" cx="496.5" cy="49" r="4.5"/>
  <text class="muted" x="506" y="53">Axiom</text>
  <rect class="zstd" x="568" y="45" width="9" height="9"/>
  <text class="muted" x="582" y="53">zstd</text>
  <path class="lz4" d="M648.5,44 L653,49 L648.5,54 L644,49 Z"/>
  <text class="muted" x="658" y="53">LZ4</text>
  <path class="lzma2" d="M724.5,44 L729,54 L720,54 Z"/>
  <text class="muted" x="734" y="53">LZMA2</text>
  <rect class="winrar" x="796" y="45" width="9" height="9"/>
  <text class="muted" x="810" y="53">WinRAR</text>
  <circle class="other" cx="876.5" cy="49" r="4.5"/>
  <text class="muted" x="886" y="53">gzip/bzip2</text>
</svg>
